<?xml version="1.0" encoding="utf-8"?>
<!-- Generator: Adobe Illustrator 25.0.0, SVG Export Plug-In . SVG Version: 6.00 Build 0)  -->
<svg version="1.1" id="Cannify-Logo" xmlns="http://www.w3.org/2000/svg" xmlns:xlink="http://www.w3.org/1999/xlink" x="0px"
	 y="0px" viewBox="0 0 176.4 50" style="enable-background:new 0 0 176.4 50;" xml:space="preserve">
<g id="logo">
	<g id="logo-letter">
		<path d="M149.6,50l6.5-14.3h-1.5l-10.5-23.8h4.8l8.7,20.5l9.3-20.5h4.6L154.3,50H149.6z"/>
		<path d="M17.8,38.9c-3.7,0-6.8-0.8-9.4-2.4c-2.6-1.6-4.7-3.9-6.1-6.8C0.7,26.9,0,23.5,0,19.7c0-3.8,0.7-7.1,2.2-10
			c1.5-2.9,3.5-5.2,6.1-6.8c2.6-1.6,5.8-2.4,9.4-2.4c4.3,0,7.7,1,10.4,3.1c2.7,2,4.4,4.9,5.1,8.5h-4.9c-0.6-2.3-1.7-4.2-3.5-5.6
			c-1.8-1.4-4.1-2.1-7.1-2.1c-2.7,0-5,0.6-7,1.8c-2,1.2-3.5,3-4.6,5.3c-1.1,2.3-1.6,5-1.6,8.2c0,3.2,0.5,5.9,1.6,8.2
			c1.1,2.3,2.6,4,4.6,5.3c2,1.2,4.3,1.8,7,1.8c3,0,5.3-0.7,7.1-2c1.8-1.4,2.9-3.2,3.5-5.5h4.9c-0.7,3.6-2.5,6.4-5.1,8.4
			C25.5,37.9,22,38.9,17.8,38.9z"/>
		<path d="M46.1,38.9c-2.2,0-4-0.4-5.5-1.1c-1.5-0.7-2.5-1.7-3.2-3c-0.7-1.2-1.1-2.6-1.1-4c0-2.7,1-4.8,3.1-6.2
			c2.1-1.5,4.9-2.2,8.4-2.2h7.1v-0.3c0-2.3-0.6-4.1-1.8-5.2c-1.2-1.2-2.8-1.8-4.8-1.8c-1.7,0-3.2,0.4-4.5,1.3
			c-1.3,0.9-2,2.1-2.4,3.8h-4.6c0.2-1.9,0.8-3.5,1.9-4.8c1.1-1.3,2.5-2.3,4.2-3c1.7-0.7,3.4-1,5.3-1c3.7,0,6.5,1,8.3,3
			c1.9,2,2.8,4.6,2.8,7.8v16.2h-4l-0.3-4.7c-0.7,1.5-1.8,2.8-3.3,3.8C50.5,38.4,48.5,38.9,46.1,38.9z M46.8,35.2
			c1.7,0,3.2-0.4,4.4-1.3c1.2-0.9,2.2-2,2.8-3.5c0.6-1.4,1-2.9,1-4.5v-0.1h-6.8c-2.6,0-4.5,0.5-5.6,1.4c-1.1,0.9-1.6,2-1.6,3.4
			c0,1.4,0.5,2.5,1.5,3.3C43.5,34.7,45,35.2,46.8,35.2z"/>
		<path d="M64,38.3V11.9h4l0.3,4.7c0.9-1.7,2.1-3,3.7-3.9s3.4-1.4,5.4-1.4c3.1,0,5.6,0.9,7.5,2.8c1.9,1.9,2.8,4.8,2.8,8.7v15.4h-4.5
			V23.4c0-5.5-2.3-8.2-6.8-8.2c-2.3,0-4.2,0.8-5.7,2.5c-1.5,1.6-2.3,4-2.3,7v13.7H64z"/>
		<path d="M92.3,38.3V11.9h4l0.3,4.7c0.9-1.7,2.1-3,3.7-3.9c1.6-1,3.4-1.4,5.4-1.4c3.1,0,5.6,0.9,7.5,2.8c1.9,1.9,2.8,4.8,2.8,8.7
			v15.4h-4.5V23.4c0-5.5-2.3-8.2-6.8-8.2c-2.3,0-4.2,0.8-5.7,2.5c-1.5,1.6-2.3,4-2.3,7v13.7H92.3z"/>
		<path d="M123.3,6.1c-0.9,0-1.6-0.3-2.2-0.9c-0.6-0.6-0.9-1.3-0.9-2.2c0-0.9,0.3-1.6,0.9-2.1c0.6-0.6,1.3-0.9,2.2-0.9
			c0.9,0,1.6,0.3,2.2,0.9c0.6,0.6,0.9,1.3,0.9,2.1c0,0.9-0.3,1.6-0.9,2.2C124.9,5.8,124.1,6.1,123.3,6.1z M121.1,38.3V11.9h4.5v26.4
			H121.1z"/>
		<path d="M132.6,38.3V15.7h-4v-3.8h4V7.3c0-2.6,0.6-4.4,1.9-5.6c1.3-1.2,3.1-1.8,5.6-1.8h2.7v3.8h-2c-1.3,0-2.3,0.3-2.9,0.8
			c-0.6,0.6-0.9,1.5-0.9,2.8v4.5h6.5v3.8h-6.5v22.6H132.6z"/>
	</g>
	<path id="logo-trademark" d="M171.6,38.3c-0.9,0-1.8-0.2-2.5-0.6c-0.7-0.4-1.3-1-1.7-1.7c-0.4-0.7-0.6-1.6-0.6-2.5
		c0-0.9,0.2-1.7,0.6-2.5c0.4-0.7,1-1.3,1.7-1.7c0.7-0.4,1.6-0.6,2.5-0.6c0.9,0,1.7,0.2,2.5,0.6c0.7,0.4,1.3,1,1.7,1.7
		c0.4,0.7,0.6,1.6,0.6,2.5c0,0.9-0.2,1.7-0.6,2.5c-0.4,0.7-1,1.3-1.7,1.7C173.4,38.1,172.5,38.3,171.6,38.3z M171.6,37.4
		c1.1,0,2.1-0.4,2.8-1.1c0.7-0.7,1-1.7,1-2.8c0-1.2-0.3-2.1-1-2.8c-0.7-0.7-1.6-1.1-2.8-1.1c-1.2,0-2.1,0.4-2.8,1.1
		c-0.7,0.7-1,1.7-1,2.8c0,1.2,0.3,2.1,1,2.8C169.5,37.1,170.4,37.4,171.6,37.4z M169.7,36v-5.2h2.2c0.5,0,1,0.1,1.3,0.4
		c0.3,0.3,0.5,0.7,0.5,1.1c0,0.4-0.1,0.7-0.3,1c-0.2,0.3-0.5,0.4-0.9,0.5l1.4,2l-1.3,0l-1.2-2h-0.5V36H169.7z M170.8,33.1h1.1
		c0.2,0,0.4,0,0.5-0.1c0.1-0.1,0.2-0.3,0.2-0.5c0-0.2-0.1-0.4-0.2-0.5c-0.1-0.1-0.3-0.1-0.5-0.1h-1.1V33.1z"/>
</g>
</svg>
