<svg width="34" height="26" viewBox="0 0 34 26" fill="none" xmlns="http://www.w3.org/2000/svg">
<path d="M20.5525 20.1593H32.5459V12.0396L30.2926 10.5439L26.5128 6.12793H20.5525V20.1593Z" stroke="#E4E3DC" stroke-width="2" stroke-miterlimit="10" stroke-linecap="round"/>
<path d="M24.1141 20.7288C22.2969 23.0792 24.9864 25.7858 27.385 23.9339C29.2749 21.6547 26.5855 18.9482 24.1141 20.7288Z" stroke="#E4E3DC" stroke-width="2" stroke-miterlimit="10" stroke-linecap="round"/>
<path d="M6.81456 20.7288C4.99737 23.0792 7.6868 25.7858 10.0855 23.9339C11.9753 21.6547 9.28592 18.9482 6.81456 20.7288Z" stroke="#E4E3DC" stroke-width="2" stroke-miterlimit="10" stroke-linecap="round"/>
<path d="M32.5464 20.1592V23.0794H28.0398" stroke="#E4E3DC" stroke-width="2" stroke-miterlimit="10" stroke-linecap="round"/>
<path d="M23.5334 23.0801H10.9585" stroke="#E4E3DC" stroke-width="2" stroke-miterlimit="10" stroke-linecap="round"/>
<path d="M6.08811 23.0794H1V20.1592" stroke="#E4E3DC" stroke-width="2" stroke-miterlimit="10" stroke-linecap="round"/>
<path d="M20.5529 7.62393V1H5.28855C2.88987 1 1 2.85185 1 5.20228V20.1595H20.5529" stroke="#E4E3DC" stroke-width="2" stroke-miterlimit="10" stroke-linecap="round"/>
</svg>
