<svg width="28" height="28" viewBox="0 0 28 28" fill="none" xmlns="http://www.w3.org/2000/svg">
<path d="M10.2258 10.2256H2.67742C1.75484 10.2256 1 9.47073 1 8.54815C1 7.62557 1.75484 6.87073 2.67742 6.87073H10.2258C11.1484 6.87073 11.9032 7.62557 11.9032 8.54815C11.9032 9.47073 11.1484 10.2256 10.2258 10.2256ZM2.67742 7.70944C2.21613 7.70944 1.83871 8.08686 1.83871 8.54815C1.83871 9.00944 2.21613 9.38686 2.67742 9.38686H10.2258C10.6871 9.38686 11.0645 9.00944 11.0645 8.54815C11.0645 8.08686 10.6871 7.70944 10.2258 7.70944H2.67742Z" fill="#274840" stroke="#274840" stroke-width="0.5"/>
<path d="M8.54804 7.2902H7.70933V3.09665C7.70933 2.38375 7.16417 1.83859 6.45127 1.83859C5.73836 1.83859 5.1932 2.38375 5.1932 3.09665V7.2902H4.35449V3.09665C4.35449 1.92246 5.27707 0.999878 6.45127 0.999878C7.62546 0.999878 8.54804 1.92246 8.54804 3.09665V7.2902Z" fill="#274840" stroke="#274840" stroke-width="0.5"/>
<path d="M6.45127 21.7159C5.73836 21.7159 5.1932 21.1708 5.1932 20.4579V19.3676C5.1932 19.1159 5.0674 18.8224 4.89965 18.6547C4.56417 18.3192 4.35449 17.8579 4.35449 17.3547V11.0643H5.1932V17.3547C5.1932 17.6063 5.31901 17.8998 5.48675 18.0676C5.82223 18.403 6.03191 18.8643 6.03191 19.3676V20.4579C6.03191 20.7095 6.19965 20.8772 6.45127 20.8772C6.70288 20.8772 6.87062 20.7095 6.87062 20.4579V19.3676C6.87062 18.8643 7.0803 18.403 7.41578 18.0676C7.62546 17.8579 7.70933 17.6063 7.70933 17.3547V11.0643H8.54804V17.3547C8.54804 17.8579 8.33836 18.3192 8.00288 18.6547C7.7932 18.8643 7.70933 19.1159 7.70933 19.3676V20.4579C7.70933 21.1708 7.16417 21.7159 6.45127 21.7159Z" fill="#274840" stroke="#274840" stroke-width="0.5"/>
<path d="M6.45183 26.9999C5.52925 26.9999 4.77441 26.2451 4.77441 25.3225V25.2386C4.77441 24.9451 4.85829 24.6515 5.02603 24.358L6.45183 21.9677L7.87764 24.358C8.04538 24.6096 8.12925 24.9031 8.12925 25.2386V25.3225C8.12925 26.2451 7.37441 26.9999 6.45183 26.9999ZM6.45183 23.6031L5.73893 24.8193C5.65506 24.9451 5.61312 25.1128 5.61312 25.2386V25.3225C5.61312 25.7838 5.99054 26.1612 6.45183 26.1612C6.91312 26.1612 7.29054 25.7838 7.29054 25.3225V25.2386C7.29054 25.0709 7.24861 24.9451 7.16474 24.8193L6.45183 23.6031Z" fill="#274840" stroke="#274840" stroke-width="0.5"/>
<path d="M24.4839 12.7417H15.2581C14.5452 12.7417 14 12.1966 14 11.4837C14 10.7707 14.5452 10.2256 15.2581 10.2256H24.4839C25.1968 10.2256 25.7419 10.7707 25.7419 11.4837C25.7419 12.1966 25.1968 12.7417 24.4839 12.7417ZM15.2581 11.0643C15.0065 11.0643 14.8387 11.232 14.8387 11.4837C14.8387 11.7353 15.0065 11.903 15.2581 11.903H24.4839C24.7355 11.903 24.9032 11.7353 24.9032 11.4837C24.9032 11.232 24.7355 11.0643 24.4839 11.0643H15.2581Z" fill="#274840" stroke="#274840" stroke-width="0.5"/>
<path d="M24.9035 26.9998H14.839C13.6648 26.9998 12.7422 26.0772 12.7422 24.9031V15.5514C12.7422 15.0063 12.9519 14.4611 13.3712 14.0837L15.3841 12.0708L15.9712 12.6579L13.9583 14.6708C13.7067 14.9224 13.5809 15.216 13.5809 15.5514V24.9031C13.5809 25.616 14.1261 26.1611 14.839 26.1611H24.9035C25.6164 26.1611 26.1615 25.616 26.1615 24.9031V15.5514C26.1615 15.216 26.0357 14.8805 25.7841 14.6708L23.7712 12.6579L24.3583 12.0708L26.3712 14.0837C26.7486 14.4611 27.0003 15.0063 27.0003 15.5514V24.9031C27.0003 26.0772 26.0777 26.9998 24.9035 26.9998Z" fill="#274840" stroke="#274840" stroke-width="0.5"/>
<path d="M26.5806 14.8385H16.0967V15.6772H26.5806V14.8385Z" fill="#274840" stroke="#274840" stroke-width="0.5"/>
<path d="M25.3224 23.645H13.1611V24.4837H25.3224V23.645Z" fill="#274840" stroke="#274840" stroke-width="0.5"/>
<path d="M24.4836 9.3869H23.6449V8.12883C23.6449 7.41593 23.0997 6.87077 22.3868 6.87077H21.1288V3.18044C21.1288 2.50948 20.6256 1.92238 19.9965 1.83851C19.6191 1.79657 19.2836 1.92238 19.032 2.17399C18.7804 2.4256 18.6127 2.76109 18.6127 3.09657V6.87077H17.3546C16.6417 6.87077 16.0965 7.41593 16.0965 8.12883V9.3869H15.2578V8.12883C15.2578 6.95464 16.1804 6.03206 17.3546 6.03206H17.7739V3.09657C17.7739 2.50948 18.0256 1.92238 18.4449 1.54496C18.8643 1.16754 19.4514 0.957863 20.0385 0.999798C21.1288 1.1256 21.9675 2.04819 21.9675 3.18044V6.03206H22.3868C23.561 6.03206 24.4836 6.95464 24.4836 8.12883V9.3869Z" fill="#274840" stroke="#274840" stroke-width="0.5"/>
<path d="M15.2577 14.8385H14.4189V15.6772H15.2577V14.8385Z" fill="#274840" stroke="#274840" stroke-width="0.5"/>
</svg>
