<svg width="33" height="32" viewBox="0 0 33 32" fill="none" xmlns="http://www.w3.org/2000/svg">
<g clip-path="url(#clip0_286:240)">
<path fill-rule="evenodd" clip-rule="evenodd" d="M15.9026 21.6917L1.13122 12.0158C0.502647 11.5731 0.502647 10.6245 1.13122 10.2451L15.9655 0.822133C16.2798 0.632409 16.7198 0.632409 17.0969 0.822133L31.9312 10.2451C32.5598 10.6877 32.5598 11.5731 31.9312 12.0158L17.0969 21.6917C16.7198 21.8814 16.2798 21.8814 15.9026 21.6917Z" stroke="#F3F0E7" stroke-width="2" stroke-miterlimit="10"/>
<path d="M0.62854 10.9407V19.7312C0.62854 20.0474 0.817112 20.4269 1.06854 20.6166L15.9028 31.1779C16.28 31.4308 16.72 31.4308 17.0971 31.1779L31.9314 20.6798C32.2457 20.4901 32.3714 20.1739 32.3714 19.7945V10.9407" stroke="#F3F0E7" stroke-width="2" stroke-miterlimit="10"/>
<path d="M16.4688 21.8182V31.4941" stroke="#F3F0E7" stroke-width="2" stroke-miterlimit="10"/>
<path fill-rule="evenodd" clip-rule="evenodd" d="M8.8633 19.9209L12.8233 22.6403C12.949 22.7036 13.0119 22.8933 13.0119 23.0198V26.0553C13.0119 26.4348 12.5719 26.6877 12.2576 26.4348L8.29758 23.6522C8.17187 23.5889 8.10901 23.3992 8.10901 23.2727V20.3636C8.10901 19.9209 8.54901 19.7312 8.8633 19.9209Z" stroke="#F3F0E7" stroke-width="2" stroke-miterlimit="10"/>
<path d="M9.11426 16.8221L25.52 6.3241" stroke="#F3F0E7" stroke-width="2" stroke-miterlimit="10"/>
</g>
<defs>
<clipPath id="clip0_286:240">
<rect width="33" height="32" fill="white"/>
</clipPath>
</defs>
</svg>
