<svg width="34" height="33" viewBox="0 0 34 33" fill="none" xmlns="http://www.w3.org/2000/svg">
<path fill-rule="evenodd" clip-rule="evenodd" d="M16.2741 22.0119L1.50268 12.336C0.874107 11.8933 0.874107 10.9447 1.50268 10.5652L16.337 1.14229C16.6512 0.952569 17.0912 0.952569 17.4684 1.14229L32.3027 10.5652C32.9312 11.0079 32.9312 11.8933 32.3027 12.336L17.4684 22.0119C17.0912 22.2016 16.6512 22.2016 16.2741 22.0119Z" stroke="#E4E3DC" stroke-width="2" stroke-miterlimit="10"/>
<path d="M1 11.2607V20.0513C1 20.3675 1.18857 20.7469 1.44 20.9366L16.2743 31.4979C16.6514 31.7509 17.0914 31.7509 17.4686 31.4979L32.3029 20.9999C32.6171 20.8102 32.7429 20.4939 32.7429 20.1145V11.2607" stroke="#E4E3DC" stroke-width="2" stroke-miterlimit="10"/>
<path d="M16.8403 22.1387V31.8146" stroke="#E4E3DC" stroke-width="2" stroke-miterlimit="10"/>
<path fill-rule="evenodd" clip-rule="evenodd" d="M9.23476 20.2412L13.1948 22.9606C13.3205 23.0238 13.3833 23.2136 13.3833 23.34V26.3756C13.3833 26.7551 12.9433 27.008 12.629 26.7551L8.66904 23.9725C8.54333 23.9092 8.48047 23.7195 8.48047 23.593V20.6839C8.48047 20.2412 8.92047 20.0515 9.23476 20.2412Z" stroke="#E4E3DC" stroke-width="2" stroke-miterlimit="10"/>
<path d="M9.4856 17.1426L25.8913 6.64453" stroke="#E4E3DC" stroke-width="2" stroke-miterlimit="10"/>
</svg>
