<svg width="115" height="355" viewBox="0 0 115 355" fill="none" xmlns="http://www.w3.org/2000/svg">
<path d="M112.739 180.701C112.593 178.776 112.254 176.802 112.157 174.925C112.108 173.24 112.642 171.507 112.739 169.774C112.981 165.393 113.563 160.772 113.514 156.391C113.417 147.582 113.078 138.725 112.836 129.915C112.593 121.78 110.653 113.789 110.847 105.557C110.944 101.465 110.265 97.7587 108.665 93.9558C108.034 92.5116 106.822 90.7786 106.725 89.1419C106.579 87.0719 107.355 84.7613 107.307 82.5951C107.21 74.941 105.561 68.2498 98.4802 64.0617C91.1085 59.6811 82.0394 59.5848 74.5222 55.3968C70.7879 53.3268 70.3514 51.8345 70.3029 47.7427C70.3029 45.9616 69.9634 44.2286 70.4484 42.4475C71.0304 40.3775 72.4853 38.9334 73.6493 37.2004C75.2012 34.8898 76.8986 30.8461 76.1226 28.0541C75.6862 26.3692 75.2497 25.8878 75.1042 23.9623C74.9587 21.8442 73.7462 19.1003 73.9402 17.0304C74.1342 14.9604 75.6377 14.5753 74.2312 12.3609C73.2128 10.7723 72.6308 9.28004 71.7093 7.54706C71.0304 6.24732 70.1089 4.56247 68.7025 3.93666C68.1205 3.69597 67.587 4.03294 67.102 3.84039C66.0351 3.45528 65.2106 2.63692 64.0952 2.25182C60.1668 0.903936 55.5595 1.28904 51.7282 2.54065C49.7398 3.16645 47.4119 3.40714 45.569 4.46619C45.1325 4.70688 44.1626 4.99571 44.211 5.66965C44.211 6.87312 45.6175 6.15104 45.7145 6.7287C45.8115 7.21009 42.3196 8.70238 41.7862 9.52074C40.9132 10.8686 41.4467 12.4572 41.2527 13.9495C40.7192 17.8487 41.2527 21.6035 40.4282 25.4065C40.1372 26.7062 39.3613 27.8134 39.2158 29.1131C39.0703 31.0387 40.1857 33.7826 41.0102 35.4674C41.6892 36.9597 42.8046 37.6818 43.7261 39.0297C45.084 40.9552 45.278 43.3621 45.3265 45.6246C45.375 48.9943 45.8115 52.2678 42.7561 54.4821C39.2158 56.9853 34.0265 58.5739 29.9042 59.5848C21.999 61.4622 13.1724 63.6285 9.77757 71.8602C8.41963 75.1336 7.44968 79.803 7.83766 83.3653C8.03165 85.1945 9.00161 87.457 8.66212 89.2863C8.32264 91.2119 7.01319 93.3299 6.28573 95.0629C2.84238 103.535 5.26727 113.404 3.08487 122.213C1.96942 126.786 2.06641 131.408 1.92092 136.125C1.77543 141.565 1.29045 147.004 1.62993 152.444C1.92092 157.306 2.3574 162.024 2.3574 166.886C2.3574 171.892 3.23036 176.947 2.64839 181.905C2.06641 186.719 1.67843 191.821 2.93937 196.635C3.52135 198.85 5.26727 200.823 6.47972 202.749C7.49817 204.289 8.85611 207.996 11.087 208.044C16.2763 208.092 12.0085 201.064 11.2325 199.331C10.3595 197.454 9.58358 194.999 9.43809 192.929C9.29259 190.522 10.4565 188.404 10.8445 186.093C11.8145 188.5 12.2995 195.239 15.6458 195.432C20.2531 195.721 16.8583 187.585 16.4218 185.467C15.9368 183.301 16.3248 181.087 15.9368 178.92C15.5488 176.802 14.1909 175.599 13.2209 173.818C11.2325 170.063 12.9784 165.73 14.1424 162.024C16.9553 153.07 19.8651 143.827 20.6411 134.44C20.9806 129.963 19.4771 124.813 20.7381 120.48C21.9505 116.34 23.1145 112.152 24.1814 107.916C25.4909 111.093 26.8003 114.318 28.1098 117.496C29.6132 121.25 29.6617 124.524 29.2737 128.519C28.9342 131.889 28.1098 135.162 27.8188 138.532C27.4793 142.431 28.4977 146.234 28.1583 150.085C27.8188 153.648 26.8488 156.825 27.3338 160.483C27.8188 164.19 27.3823 167.271 26.8003 170.929C25.7334 177.621 25.0544 184.456 23.6965 191.147C23.3085 192.977 24.0359 194.18 24.0359 195.913C24.0359 197.405 23.3085 198.994 23.0175 200.438C22.2415 204.53 22.1445 208.67 21.805 212.762C21.5141 216.42 22.1445 220.127 22.193 223.834C22.193 227.636 22.678 231.295 23.9874 234.857C26.6063 241.837 27.1883 249.54 27.1398 257.001C27.0913 264.462 25.0059 271.924 24.2299 279.337C23.551 286.269 25.2484 293.827 26.1213 300.711C26.6063 304.562 26.8003 308.413 26.9943 312.264C27.1398 315.73 27.7703 319.148 28.0128 322.662C28.4492 329.594 30.1467 338.114 24.6664 343.41C22.678 345.335 18.7012 346.25 17.5857 348.946C15.8883 352.893 21.5626 353.519 24.1329 353.278C27.3338 352.989 30.6801 353.904 33.8325 353.182C36.3544 352.604 39.7977 353.086 41.7377 350.919C43.8716 348.464 42.5621 343.891 42.3681 341.003C42.1256 337.489 42.7561 333.589 41.9317 330.172C40.1372 323.047 42.9986 315.778 44.0171 308.606C44.5505 304.947 44.89 301.818 46.248 298.4C47.7029 294.79 48.2364 291.035 48.3334 287.184C48.5274 279.771 46.8784 272.983 46.1025 265.666C45.7145 262.152 47.3149 258.83 47.6059 255.316C47.9454 251.369 48.6729 247.518 49.2063 243.57C49.6913 240.008 49.7398 236.446 50.5643 232.884C51.4857 228.888 52.6982 224.941 53.6196 220.945C55.4626 213.195 54.8806 205.348 55.608 197.454C55.7535 195.865 55.3656 189.366 58.0329 189.992C60.6033 190.57 59.8274 197.839 59.8274 199.861C59.9244 207.466 60.2153 215.409 62.1068 222.871C63.0282 226.577 64.2407 230.188 64.9681 233.895C65.7441 237.89 65.7441 241.934 66.4231 245.929C67.005 249.684 67.4415 253.198 67.878 256.953C68.072 258.734 68.46 260.419 68.9935 262.152C69.6239 264.174 69.3329 265.04 68.848 267.158C67.1505 274.812 66.5686 283.092 67.1505 290.939C67.393 294.453 68.8965 297.341 69.9149 300.663C71.0789 304.514 71.2729 308.654 71.8548 312.601C72.3883 316.163 73.3583 319.677 73.7947 323.24C74.2797 326.946 73.0188 330.268 72.6793 333.926C72.3883 337.2 73.6493 340.184 72.8248 343.41C72.0003 346.539 71.2729 350.39 74.7647 352.027C77.4806 353.278 81.2634 353.76 84.2218 353.615C85.7252 353.567 87.1802 352.941 88.6836 352.989C90.8175 353.037 92.1754 353.615 94.4063 353.23C96.6857 352.845 98.5772 351.978 97.4132 349.186C96.3462 346.587 92.1269 345.528 90.187 343.506C88.7321 342.014 86.6952 339.896 86.7922 337.681C86.9377 334.793 86.4042 331.808 86.5497 328.824C86.8892 321.122 87.7136 313.323 88.3926 305.717C89.0231 298.304 90.866 291.131 90.8175 283.67C90.769 275.968 88.6836 268.554 88.4411 260.852C88.2471 252.909 87.9561 244.822 90.7205 237.264C93.4364 229.899 93.2424 221.571 93.2909 213.869C93.3394 210.162 93.2909 206.407 92.7574 202.701C92.5149 201.208 92.0784 199.764 91.739 198.272C91.351 196.395 91.7874 195.191 91.8844 193.41C91.9329 191.966 91.254 190.233 91.06 188.789C90.866 187.296 90.9145 185.756 90.769 184.264C90.381 180.701 89.7505 176.85 89.0231 173.288C88.2956 169.822 88.0046 166.597 87.9076 163.035C87.8591 161.157 88.3926 159.761 88.4411 157.932C88.5381 155.862 87.8106 153.792 87.5196 151.77C86.9862 147.919 87.7621 144.212 87.7621 140.409C87.8106 136.51 86.5497 132.804 86.0647 128.952C85.6767 125.968 85.5797 122.454 86.4527 119.565C87.6166 115.763 89.5081 112.008 91.0115 108.349C92.3694 113.163 94.1638 118.025 94.4063 123.031C94.6488 127.845 94.1153 132.659 94.6973 137.473C95.8613 147.004 98.9651 156.199 101.584 165.441C102.117 167.319 102.845 169.389 102.748 171.363C102.699 173.336 101.487 174.492 100.469 176.08C98.7226 178.728 99.4016 181.905 98.7226 184.889C98.2377 187.056 94.5518 195.191 98.6256 195.961C102.166 196.635 103.087 189.463 103.718 187.345C107.646 192.303 104.3 198.416 101.778 202.99C100.905 204.578 100.954 204.867 101.827 206.407C102.263 207.129 103.039 208.862 104.106 208.814C105.415 208.814 108.083 204.097 108.81 203.038C113.854 195.865 113.272 188.692 112.739 180.701ZM112.739 180.701C112.642 178.92 112.884 182.868 112.739 180.701Z" stroke="#717171" stroke-width="2" stroke-miterlimit="10"/>
<circle cx="61" cy="25" r="2" fill="#076B4C"/>
<circle cx="55" cy="19" r="2" fill="#076B4C"/>
<circle cx="65" cy="15" r="2" fill="#076B4C"/>
<circle cx="57" cy="11" r="2" fill="#076B4C"/>
<circle cx="47" cy="23" r="2" fill="#076B4C"/>
<circle cx="56" cy="34" r="2" fill="#076B4C"/>
<circle cx="54" cy="27" r="2" fill="#076B4C"/>
<circle cx="56" cy="46" r="2" fill="#076B4C"/>
<circle cx="61" cy="54" r="2" fill="#076B4C"/>
<circle cx="55" cy="61" r="2" fill="#076B4C"/>
<circle cx="58" cy="67" r="2" fill="#076B4C"/>
<circle cx="55" cy="75" r="2" fill="#076B4C"/>
<circle cx="60" cy="82" r="2" fill="#076B4C"/>
<circle cx="56" cy="89" r="2" fill="#076B4C"/>
<circle cx="61" cy="95" r="2" fill="#076B4C"/>
<circle cx="55" cy="110" r="2" fill="#076B4C"/>
<circle cx="64" cy="123" r="2" fill="#076B4C"/>
<circle cx="68" cy="157" r="2" fill="#076B4C"/>
<circle cx="57" cy="130" r="2" fill="#076B4C"/>
<circle cx="46" cy="163" r="2" fill="#076B4C"/>
<circle cx="61" cy="155" r="2" fill="#076B4C"/>
<circle cx="62" cy="139" r="2" fill="#B22A2F"/>
<circle cx="63" cy="32" r="2" fill="#B22A2F"/>
<circle cx="63" cy="9" r="2" fill="#B22A2F"/>
<circle cx="68" cy="24" r="2" fill="#B22A2F"/>
<circle cx="50" cy="12" r="2" fill="#B22A2F"/>
<circle cx="50" cy="35" r="2" fill="#B22A2F"/>
<circle cx="61" cy="41" r="2" fill="#B22A2F"/>
<circle cx="50" cy="53" r="2" fill="#B22A2F"/>
<circle cx="52" cy="95" r="2" fill="#B22A2F"/>
<circle cx="38" cy="75" r="2" fill="#B22A2F"/>
<circle cx="81" cy="74" r="2" fill="#B22A2F"/>
<circle cx="39" cy="96" r="2" fill="#B22A2F"/>
<circle cx="84" cy="87" r="2" fill="#B22A2F"/>
<circle cx="68" cy="114" r="2" fill="#B22A2F"/>
<circle cx="51" cy="130" r="2" fill="#B22A2F"/>
<circle cx="54" cy="156" r="2" fill="#B22A2F"/>
<circle cx="37" cy="172" r="2" fill="#B22A2F"/>
<circle cx="64" cy="168" r="2" fill="#B22A2F"/>
<circle cx="71" cy="150" r="2" fill="#B22A2F"/>
<circle cx="51" cy="146" r="2" fill="#B22A2F"/>
<circle cx="76" cy="165" r="2" fill="#B22A2F"/>
<circle cx="82" cy="215" r="2" fill="#B22A2F"/>
<circle cx="79" cy="263" r="2" fill="#B22A2F"/>
<circle cx="36" cy="259" r="2" fill="#B22A2F"/>
<circle cx="42" cy="228" r="2" fill="#B22A2F"/>
<circle cx="47" cy="179" r="2" fill="#B22A2F"/>
<circle cx="72" cy="181" r="2" fill="#076B4C"/>
<circle cx="39" cy="185" r="2" fill="#076B4C"/>
<circle cx="39" cy="208" r="2" fill="#076B4C"/>
<circle cx="28" cy="226" r="2" fill="#076B4C"/>
<circle cx="37" cy="251" r="2" fill="#076B4C"/>
<circle cx="32" cy="273" r="2" fill="#076B4C"/>
<circle cx="39" cy="289" r="2" fill="#076B4C"/>
<circle cx="33" cy="311" r="2" fill="#076B4C"/>
<circle cx="78" cy="208" r="2" fill="#076B4C"/>
<circle cx="74" cy="226" r="2" fill="#076B4C"/>
<circle cx="78" cy="247" r="2" fill="#076B4C"/>
<circle cx="70" cy="282" r="2" fill="#076B4C"/>
<circle cx="80" cy="311" r="2" fill="#076B4C"/>
<circle cx="20" cy="89" r="2" fill="#076B4C"/>
<circle cx="16" cy="104" r="2" fill="#076B4C"/>
<circle cx="98" cy="84" r="2" fill="#076B4C"/>
<circle cx="102" cy="106" r="2" fill="#076B4C"/>
<circle cx="7" cy="178" r="2" fill="#076B4C"/>
<circle cx="11" cy="135" r="2" fill="#076B4C"/>
<circle cx="106" cy="178" r="2" fill="#076B4C"/>
<circle cx="106" cy="145" r="2" fill="#076B4C"/>
</svg>
