<svg width="22" height="34" viewBox="0 0 22 34" fill="none" xmlns="http://www.w3.org/2000/svg">
<path d="M3.26068 23.0827H10.1401C10.656 23.0827 11 22.7351 11 22.2137C11 21.6923 10.656 21.3447 10.1401 21.3447H3.26068C2.74473 21.3447 2.40076 21.6923 2.40076 22.2137C2.40076 22.7351 2.74473 23.0827 3.26068 23.0827ZM17.8794 31.7724H13.9238L12.0319 29.8607C17.2775 28.9048 21.3191 24.2992 21.3191 18.7378C21.3191 12.4811 16.3315 7.44107 10.1401 7.44107V3.09619C10.1401 2.5748 9.79611 2.22721 9.28016 2.22721H8.42023V1.35823C8.42023 0.836849 8.07626 0.489258 7.56031 0.489258H5.84046C5.3245 0.489258 4.98053 0.836849 4.98053 1.35823V2.22721H4.12061C3.60465 2.22721 3.26068 2.5748 3.26068 3.09619V13.5239C3.26068 14.0453 3.60465 14.3929 4.12061 14.3929V18.7378C4.12061 19.2592 4.46458 19.6067 4.98053 19.6067H8.42023C8.93619 19.6067 9.28016 19.2592 9.28016 18.7378V14.3929C9.79611 14.3929 10.1401 14.0453 10.1401 13.5239V12.6549C13.4938 12.6549 16.1596 15.3488 16.1596 18.7378C16.1596 22.1268 13.4938 24.8206 10.1401 24.8206H3.26068C2.74473 24.8206 2.40076 25.1682 2.40076 25.6896C2.40076 26.211 2.74473 26.5586 3.26068 26.5586H10.1401C14.4397 26.5586 17.8794 23.0827 17.8794 18.7378C17.8794 14.3929 14.4397 10.917 10.1401 10.917V9.17903C15.3856 9.17903 19.5993 13.437 19.5993 18.7378C19.5993 24.0385 15.3856 28.2965 10.1401 28.2965C9.62413 28.2965 9.28016 28.6441 9.28016 29.1655C9.28016 29.4262 9.36615 29.6 9.53814 29.7738L11.516 31.7724H1.54083C1.02488 31.7724 0.680908 32.12 0.680908 32.6414C0.680908 33.1628 1.02488 33.5104 1.54083 33.5104H17.8794C18.3954 33.5104 18.7393 33.1628 18.7393 32.6414C18.7393 32.12 18.3954 31.7724 17.8794 31.7724ZM7.56031 17.8688H5.84046V14.3929H7.56031V17.8688ZM8.42023 12.6549H7.56031H5.84046H4.98053V3.96517H5.84046C6.35641 3.96517 6.70038 3.61757 6.70038 3.09619C6.70038 3.61757 7.04435 3.96517 7.56031 3.96517H8.42023V12.6549Z" fill="#E4E3DC"/>
</svg>
