<svg width="66" height="66" viewBox="0 0 66 66" fill="none" xmlns="http://www.w3.org/2000/svg">
<path d="M66 33C66 51.2254 51.2254 66 33 66C14.7746 66 0 51.2254 0 33C0 14.7746 14.7746 0 33 0C51.2254 0 66 14.7746 66 33Z" fill="#274840"/>
<g clip-path="url(#clip0_245:4678)">
<path d="M25.4324 38.3023H31.9187C32.4051 38.3023 32.7294 37.9746 32.7294 37.483C32.7294 36.9914 32.4051 36.6637 31.9187 36.6637H25.4324C24.9459 36.6637 24.6216 36.9914 24.6216 37.483C24.6216 37.9746 24.9459 38.3023 25.4324 38.3023ZM39.2157 46.4956H35.4861L33.7024 44.6931C38.6482 43.7918 42.4589 39.4494 42.4589 34.2057C42.4589 28.3066 37.7563 23.5546 31.9187 23.5546V19.458C31.9187 18.9664 31.5943 18.6386 31.1079 18.6386H30.2971V17.8193C30.2971 17.3277 29.9728 17 29.4863 17H27.8647C27.3782 17 27.0539 17.3277 27.0539 17.8193V18.6386H26.2431C25.7567 18.6386 25.4324 18.9664 25.4324 19.458V29.2898C25.4324 29.7814 25.7567 30.1091 26.2431 30.1091V34.2057C26.2431 34.6973 26.5675 35.0251 27.0539 35.0251H30.2971C30.7835 35.0251 31.1079 34.6973 31.1079 34.2057V30.1091C31.5943 30.1091 31.9187 29.7814 31.9187 29.2898V28.4705C35.0807 28.4705 37.5942 31.0104 37.5942 34.2057C37.5942 37.4011 35.0807 39.941 31.9187 39.941H25.4324C24.9459 39.941 24.6216 40.2687 24.6216 40.7603C24.6216 41.2519 24.9459 41.5796 25.4324 41.5796H31.9187C35.9726 41.5796 39.2157 38.3023 39.2157 34.2057C39.2157 30.1091 35.9726 26.8319 31.9187 26.8319V25.1932C36.8644 25.1932 40.8373 29.2079 40.8373 34.2057C40.8373 39.2036 36.8644 43.2183 31.9187 43.2183C31.4322 43.2183 31.1079 43.546 31.1079 44.0376C31.1079 44.2834 31.1889 44.4473 31.3511 44.6111L33.2159 46.4956H23.8108C23.3243 46.4956 23 46.8233 23 47.3149C23 47.8065 23.3243 48.1342 23.8108 48.1342H39.2157C39.7022 48.1342 40.0265 47.8065 40.0265 47.3149C40.0265 46.8233 39.7022 46.4956 39.2157 46.4956ZM29.4863 33.3864H27.8647V30.1091H29.4863V33.3864ZM30.2971 28.4705H29.4863H27.8647H27.0539V20.2773H27.8647C28.3512 20.2773 28.6755 19.9496 28.6755 19.458C28.6755 19.9496 28.9998 20.2773 29.4863 20.2773H30.2971V28.4705Z" fill="white"/>
</g>
<defs>
<clipPath id="clip0_245:4678">
<rect width="19.4589" height="31.1342" fill="white" transform="translate(23 17)"/>
</clipPath>
</defs>
</svg>
