<svg width="23" height="22" viewBox="0 0 23 22" fill="none" xmlns="http://www.w3.org/2000/svg">
<path d="M8.89471 8.36843C8.89471 8.68422 8.68419 8.89475 8.3684 8.89475H1.52631C1.21053 8.89475 1 8.68422 1 8.36843V1.52632C1 1.21053 1.21053 1 1.52631 1H8.3684C8.68419 1 8.89471 1.21053 8.89471 1.52632V8.36843Z" stroke="#274840" stroke-width="2" stroke-miterlimit="10" stroke-linecap="round" stroke-linejoin="round"/>
<path d="M21.0012 8.36843C21.0012 8.68422 20.7906 8.89475 20.4748 8.89475H13.6328C13.317 8.89475 13.1064 8.68422 13.1064 8.36843V1.52632C13.1064 1.21053 13.317 1 13.6328 1H20.4748C20.7906 1 21.0012 1.21053 21.0012 1.52632V8.36843Z" stroke="#274840" stroke-width="2" stroke-miterlimit="10" stroke-linecap="round" stroke-linejoin="round"/>
<path d="M8.89471 20.4738C8.89471 20.7896 8.68419 21.0001 8.3684 21.0001H1.52631C1.21053 21.0001 1 20.7896 1 20.4738V13.6317C1 13.3159 1.21053 13.1053 1.52631 13.1053H8.3684C8.68419 13.1053 8.89471 13.3159 8.89471 13.6317V20.4738Z" stroke="#274840" stroke-width="2" stroke-miterlimit="10" stroke-linecap="round" stroke-linejoin="round"/>
<path d="M21.0012 20.4738C21.0012 20.7896 20.7906 21.0001 20.4748 21.0001H13.6328C13.317 21.0001 13.1064 20.7896 13.1064 20.4738V13.6317C13.1064 13.3159 13.317 13.1053 13.6328 13.1053H20.4748C20.7906 13.1053 21.0012 13.3159 21.0012 13.6317V20.4738Z" stroke="#274840" stroke-width="2" stroke-miterlimit="10" stroke-linecap="round" stroke-linejoin="round"/>
</svg>
