<svg width="10" height="53" viewBox="0 0 10 53" fill="none" xmlns="http://www.w3.org/2000/svg">
<path d="M9.41589 37H0.584112C0.257009 37 0 36.8002 0 36.5459V2.45407C0 2.19979 0.257009 2 0.584112 2H9.41589C9.74299 2 10 2.19979 10 2.45407V36.5278C10 36.782 9.74299 37 9.41589 37ZM1.16822 36.0919H8.83178V2.90815H1.16822V36.0919Z" fill="#274840"/>
<path d="M4.99963 31.3945C3.55104 31.3945 2.38281 30.2291 2.38281 28.7841C2.38281 27.3391 3.55104 26.1737 4.99963 26.1737C6.44823 26.1737 7.61646 27.3391 7.61646 28.7841C7.61646 30.2291 6.44823 31.3945 4.99963 31.3945ZM4.99963 27.3157C4.20524 27.3157 3.55104 27.9683 3.55104 28.7608C3.55104 29.5532 4.20524 30.2058 4.99963 30.2058C5.79403 30.2058 6.44823 29.5532 6.44823 28.7608C6.44823 27.9683 5.79403 27.3157 4.99963 27.3157Z" fill="#274840"/>
<path d="M5.00001 24.8453C5.51616 24.8453 5.93459 24.4279 5.93459 23.913C5.93459 23.3981 5.51616 22.9807 5.00001 22.9807C4.48386 22.9807 4.06543 23.3981 4.06543 23.913C4.06543 24.4279 4.48386 24.8453 5.00001 24.8453Z" fill="#274840"/>
<path d="M7.03222 17.084H2.9668V21.8153H7.03222V17.084Z" fill="#274840"/>
<path d="M9.41589 7.69123H0.584112C0.257009 7.69123 0 7.41154 0 7.10855V2.75015C0 2.42386 0.257009 2.16748 0.584112 2.16748H9.41589C9.74299 2.16748 10 2.42386 10 2.75015V7.08525C10 7.41154 9.74299 7.69123 9.41589 7.69123ZM1.16822 6.52588H8.83178V3.33283H1.16822V6.52588Z" fill="#274840"/>
<path d="M5.77679 3H4.22321C4.09821 3 4 2.76923 4 2.47552V0.524476C4 0.230769 4.09821 0 4.22321 0H5.77679C5.90179 0 6 0.230769 6 0.524476V2.47552C6 2.76923 5.90179 3 5.77679 3ZM4.44643 1.95105H5.55357V1.04895H4.44643V1.95105Z" fill="#274840"/>
<path d="M9.41589 12.0264H0.584112C0.257009 12.0264 0 11.7701 0 11.4438V7.10867C0 6.78238 0.257009 6.526 0.584112 6.526H9.41589C9.74299 6.526 10 6.78238 10 7.10867V11.4438C10 11.7701 9.74299 12.0264 9.41589 12.0264ZM1.16822 10.8611H8.83178V7.69135H1.16822V10.8611Z" fill="#274840"/>
</svg>
