<svg width="10" height="35" viewBox="0 0 10 35" fill="none" xmlns="http://www.w3.org/2000/svg">
<path d="M9.41589 34.9056H0.584112C0.257009 34.9056 0 34.7171 0 34.4772V2.31509C0 2.0752 0.257009 1.88672 0.584112 1.88672H9.41589C9.74299 1.88672 10 2.0752 10 2.31509V34.4601C10 34.7 9.74299 34.9056 9.41589 34.9056ZM1.16822 34.0488H8.83178V2.74346H1.16822V34.0488Z" fill="#274840"/>
<path d="M4.99964 29.6176C3.55104 29.6176 2.38281 28.5182 2.38281 27.155C2.38281 25.7918 3.55104 24.6924 4.99964 24.6924C6.44823 24.6924 7.61646 25.7918 7.61646 27.155C7.61646 28.5182 6.44823 29.6176 4.99964 29.6176ZM4.99964 25.7698C4.20524 25.7698 3.55104 26.3854 3.55104 27.133C3.55104 27.8806 4.20524 28.4963 4.99964 28.4963C5.79403 28.4963 6.44823 27.8806 6.44823 27.133C6.44823 26.3854 5.79403 25.7698 4.99964 25.7698Z" fill="#274840"/>
<path d="M5.00001 23.4387C5.51616 23.4387 5.93459 23.0449 5.93459 22.5592C5.93459 22.0735 5.51616 21.6797 5.00001 21.6797C4.48386 21.6797 4.06543 22.0735 4.06543 22.5592C4.06543 23.0449 4.48386 23.4387 5.00001 23.4387Z" fill="#274840"/>
<path d="M7.03222 16.1172H2.9668V20.5807H7.03222V16.1172Z" fill="#274840"/>
<path d="M9.41589 7.256H0.584112C0.257009 7.256 0 6.99215 0 6.70631V2.59461C0 2.28679 0.257009 2.04492 0.584112 2.04492H9.41589C9.74299 2.04492 10 2.28679 10 2.59461V6.68432C10 6.99215 9.74299 7.256 9.41589 7.256ZM1.16822 6.15662H8.83178V3.14431H1.16822V6.15662Z" fill="#274840"/>
<path d="M5.77679 2.83019H4.22321C4.09821 2.83019 4 2.61248 4 2.3354V0.494788C4 0.217707 4.09821 0 4.22321 0H5.77679C5.90179 0 6 0.217707 6 0.494788V2.3354C6 2.61248 5.90179 2.83019 5.77679 2.83019ZM4.44643 1.84061H5.55357V0.989577H4.44643V1.84061Z" fill="#274840"/>
<path d="M9.41589 11.3453H0.584112C0.257009 11.3453 0 11.1035 0 10.7957V6.70594C0 6.39811 0.257009 6.15625 0.584112 6.15625H9.41589C9.74299 6.15625 10 6.39811 10 6.70594V10.7957C10 11.1035 9.74299 11.3453 9.41589 11.3453ZM1.16822 10.246H8.83178V7.25563H1.16822V10.246Z" fill="#274840"/>
</svg>
